<?xml version="1.0" encoding="UTF-8" standalone="no"?>
<!-- Created with Inkscape (http://www.inkscape.org/) -->

<svg
width="120"
height="120"
viewBox="0 0 120 120"
preserveAspectRatio="xMidYMid meet"
   version="1.1"
   id="svg1"
   xml:space="preserve"
   inkscape:version="1.4.3 (0d15f75, 2025-12-25)"
   sodipodi:docname="logo.svg"
   xmlns:inkscape="http://www.inkscape.org/namespaces/inkscape"
   xmlns:sodipodi="http://sodipodi.sourceforge.net/DTD/sodipodi-0.dtd"
   xmlns="http://www.w3.org/2000/svg"
   xmlns:svg="http://www.w3.org/2000/svg"><sodipodi:namedview
     id="namedview1"
     pagecolor="#ffffff"
     bordercolor="#000000"
     borderopacity="0.25"
     inkscape:showpageshadow="2"
     inkscape:pageopacity="0.0"
     inkscape:pagecheckerboard="0"
     inkscape:deskcolor="#d1d1d1"
     inkscape:document-units="mm"
     inkscape:zoom="0.1157493"
     inkscape:cx="8.6393608"
     inkscape:cy="622.03398"
     inkscape:window-width="1356"
     inkscape:window-height="850"
     inkscape:window-x="284"
     inkscape:window-y="5"
     inkscape:window-maximized="0"
     inkscape:current-layer="layer1" /><defs
     id="defs1" /><g
     inkscape:label="Слой 1"
     inkscape:groupmode="layer"
     id="layer1"><g
       id="g5"
       transform="translate(-222.29705,-290.87198)"><path
         style="fill:#fbe4a9"
         d="m 70.032801,218.66944 c -7.614975,-2.45129 1.394322,-7.03986 1.215711,-6.70736 -7.92956,4.49678 0.306477,-6.46519 3.655944,-0.39768 2.913655,3.17899 -0.75673,8.97942 -4.871655,7.10504 z m 3.467087,-0.67097 c 4.42192,-4.86482 -0.696213,-0.30657 -2.582105,-1.19206 4.714019,-0.10142 5.566918,-6.38297 1.465857,-5.60802 -2.171904,2.47407 -8.172477,4.71082 -1.645511,7.18214 0.921738,0.22725 1.946677,0.12897 2.761759,-0.38206 z m -3.185621,-5.78248 c 4.601876,-4.85683 -6.521389,2.03679 0,0 z m 32.353513,6.66241 c -9.312631,-5.27286 6.95266,-13.79676 6.20066,-3.32407 -0.40808,3.06063 -3.64619,3.87065 -6.20066,3.32407 z m 4.1268,-0.89728 c 6.26568,-4.03643 -5.13782,-10.69741 -5.17199,-5.01117 5.85174,-2.4452 -0.10798,0.207 -0.88017,1.74472 3.09597,2.11881 8.07409,-5.46824 4.2266,0.35725 -3.99625,-0.0742 -6.275732,1.44273 -1.21974,3.5198 l 1.55056,-0.0256 z m -4.39138,-0.52805 c 2.43279,0.14286 8.58828,-3.91512 2.50125,0.081 l -1.4067,0.2092 -1.09455,-0.29013 z m -72.899425,1.14081 c 2.95253,-1.16973 2.257191,-5.44433 1.83384,-0.22515 -0.558811,0.67833 -5.06626,0.26243 -1.83384,0.22515 z m 6.732871,-0.4047 c -7.778117,-5.91831 7.190107,-12.94335 7.034471,-3.11612 -0.298809,3.28999 -4.460678,4.64584 -7.034471,3.11612 z m 4.817153,-0.34198 c 4.267133,-2.00648 -1.119194,-10.51358 -0.739401,-3.54887 -2.099218,3.30177 -8.967595,-2.26166 -3.887397,3.46114 1.415981,0.69168 3.177361,0.66104 4.626798,0.0877 z m -2.944348,-0.0853 c 4.186646,-2.55324 2.271826,1.05721 0,0 z m 1.063629,-3.07489 c 5.713636,-4.45254 -6.972296,0.72929 -1.947308,0.39352 l 1.036353,-0.0962 z m -0.249768,-1.60403 c 4.273667,-6.73376 -9.801704,2.00864 -0.859662,0.58899 z m 48.61361,5.52707 c 1.479161,-0.22839 -0.454913,0.45363 0,0 z M 0.92312751,217.90967 c -0.80711463,-6.03858 1.41477189,2.30823 0,0 z m 19.84523649,0.33435 c -0.323234,-1.32702 0.86117,1.00766 0,0 z m 30.774379,-0.18084 c -4.184429,-6.86268 0.790285,0.1139 0,0 z m 6.016567,-0.16586 c 1.694879,-2.45128 -0.750922,1.95112 0,0 z m 31.032638,0.31138 c -0.447953,-4.94343 0.869635,-3.9066 0.239638,0.19446 -0.09341,0.30885 -0.748283,0.004 -0.239638,-0.19446 z m -10.753223,-0.74083 c 0.231539,-1.19259 0.231539,1.19259 0,0 z m -66.120882,-0.66146 c 0.252246,-1.72741 0.163242,2.05601 0,0 z m 46.913826,-0.73901 c 0.927194,-1.20743 -0.335011,1.10102 0,0 z m -47.290833,-0.98559 c -3.9682028,-0.55868 0.616766,-1.22181 0,0 z m 9.306116,0.0204 c 0.567204,-1.41918 0.381011,0.91551 0,0 z m 57.149997,0 c 0.567204,-1.41918 0.381011,0.91551 0,0 z m -76.4645793,-0.5482 c 3.2201301,-0.78589 1.1366872,0.46942 0,0 z M 14.459674,213.896 c -2.308022,-3.1709 -0.07659,-1.15976 0.680357,0.66145 z m 2.913059,0.20829 c 2.59218,-3.29734 -1.004501,1.77253 0,0 z m 4.861719,0.2199 c 2.119743,-0.81678 0.420951,-4.88198 1.020791,-6.99174 0.536179,-3.45397 -2.031078,-1.37707 0.154671,-1.04196 0.31241,2.92195 0.13924,9.43262 -1.175462,8.0337 z m 7.60677,0.058 c 1.457016,-0.42943 0.264432,0.46307 0,0 z m 49.085242,-0.008 c 2.175794,-0.32814 -0.308323,0.45466 0,0 z m 7.932464,9.7e-4 c 2.049315,-0.41175 0.393457,0.42558 0,0 z M 8.9170915,214.11648 c -0.7725272,-4.06482 0.7969881,-14.48401 0.1423593,-4.47651 -0.051894,1.28373 0.2488585,4.01247 -0.1423593,4.47651 z m 19.8437485,0 c -0.231464,-3.90162 -0.333591,-10.69203 0.0991,-12.91555 0.09349,4.13233 0.337313,9.53601 -0.0991,12.91555 z m 57.320178,-1.27882 c 0.219689,-2.66062 0.164765,2.99699 0,0 z m -26.262985,0.85769 c 1.525042,-3.83471 6.572134,-13.68059 7.660167,-13.19216 -3.561814,3.31411 -4.886405,9.09586 -7.660167,13.19216 z m 20.624386,-6.46725 c -0.215004,-3.66125 0.203664,-9.47772 0.214904,-2.32237 -0.01249,1.89266 -0.05108,9.02311 -0.100369,8.11119 -0.03818,-1.92961 -0.07636,-3.85921 -0.114535,-5.78882 z m -61.515259,4.41894 c 1.740555,-2.84938 -1.142086,2.81609 0,0 z m 35.586457,0.42518 c 0.797312,-0.87287 0.806422,0.35916 0,0 z m -41.936456,-1.21893 c -1.121441,-2.80304 1.725299,2.83147 0,0 z m 81.293225,0.35394 c 1.457014,-0.42943 0.264432,0.46307 0,0 z M 53.442203,210.0339 c -1.760069,-4.13166 2.216789,3.83706 0,0 z m 44.809629,-0.54711 c 3.905958,-4.02067 -1.101749,1.73381 0,0 z m -86.600713,-0.221 c -0.648766,-1.87796 1.257969,1.89868 0,0 z m 9.260416,-0.92604 c 1.924049,-3.59105 0.529258,-0.0431 -0.597981,1.32291 z m 25.917038,0.63879 c -0.798002,-2.24048 1.291222,1.94944 0,0 z m -36.103496,-1.30025 c -1.1214387,-2.80304 1.725301,2.83147 0,0 z m 40.666137,-1.99789 c -2.848442,-6.35219 2.927851,5.37711 0,0 z m 6.051571,1.33643 c 0.513181,-1.93537 1.159081,-1.03823 0,0 z m -41.293749,-0.43266 c 2.38105,-2.45751 -0.638376,1.2009 0,0 z m 69.870884,-0.11856 c 0.170224,-1.01968 0.268362,1.20428 0,0 z m 7.382004,0.12364 c 3.321997,-1.82578 -1.478031,1.116 0,0 z m 6.907256,0.163 c 0.0778,-1.78057 1.02973,-0.61809 0,0 z M 9.7990359,206.09079 c -0.6487654,-1.87796 1.2579691,1.89868 0,0 z m 5.0270831,-1.05834 c -0.64875,-1.87794 1.257969,1.89871 0,0 z m 2.645833,-0.26458 c 1.27956,-1.91395 -0.680248,1.8807 0,0 z m 83.425728,-0.92604 c 0.21996,-2.66066 0.16394,2.99719 0,0 z m -5.576848,-0.13229 c 0.212788,-1.65586 0.212788,1.65586 0,0 z m -77.05513,-0.26459 c 1.279559,-1.91392 -0.680254,1.8807 0,0 z m -4.497916,-0.26458 c -0.64875,-1.87794 1.257969,1.89871 0,0 z m 36.021501,-0.99219 c -0.696885,-1.94655 1.309816,2.2474 0,0 z m -6.750452,-0.638 c -1.591286,-2.90982 2.627797,3.66223 0,0 z m 16.509968,0.96873 c 0.215551,-1.47793 0.92718,-0.35972 0,0 z m 35.330781,-0.31931 c -0.331035,-1.15803 0.91877,1.23694 0,0 z m -81.905548,-0.34214 c -0.648766,-1.87796 1.257969,1.89868 0,0 z m 6.349999,-0.26459 c 1.279558,-1.91392 -0.680251,1.8807 0,0 z m 81.247965,0.11024 c 0.17025,-1.01969 0.26834,1.20428 0,0 z m -14.462909,-0.6394 c 2.131764,-0.80561 9.863905,-0.2878 3.560522,-0.33874 -0.842299,-0.28152 -3.168137,0.41852 -3.560522,0.33874 z m 7.961605,0.26761 c 0.197304,-0.61888 1.119747,0.9702 0,0 z m -82.022702,-1.06136 c -1.121439,-2.80304 1.7253,2.83147 0,0 z m 88.012126,0.0661 c -0.696889,-1.94654 1.30976,2.2474 0,0 z m -50.67629,0.15056 c 3.132069,-1.67501 1.685121,0.40913 0,0 z M 2.197301,200.35118 c 2.1757891,-0.32814 -0.3083137,0.45466 0,0 z m 27.202949,0.0891 c 2.026082,-0.86875 1.864358,0.27451 0,-3e-5 z m 11.143368,-0.22321 c -1.261947,-1.64234 3.016981,1.40994 0,0 z m 18.401769,0.14227 c 1.457016,-0.42943 0.264432,0.46307 0,0 z m 19.169062,-0.14227 c -0.872443,-1.40859 3.590166,1.38344 0,0 z M 1.120703,199.95246 c -0.44940867,-7.49885 0.6109298,-2.05481 0,0 z m 19.393957,-0.47625 c 1.740555,-2.84938 -1.142086,2.81609 0,0 z m 37.529842,0.38546 c -0.280331,-1.78579 0.838329,1.44658 0,0 z m -26.747494,-1.04692 c 0.25224,-1.72743 0.163248,2.05599 0,0 z m 20.0893,-0.5424 c -0.427294,-5.40674 0.427834,4.29585 0,0 z m 17.755066,0.0132 c 0.232852,-2.19426 0.165033,2.52546 0,0 z m 29.293074,0.0835 c -2.69895,-3.12041 4.272322,3.90786 0,0 z m -87.312496,0.31337 c -0.648764,-1.87796 1.25797,1.89868 0,0 z m 46.932696,-1.03777 c 1.132702,-4.11658 -0.357566,2.94091 0,0 z m -36.373117,-0.24077 c 2.45094,-3.0836 -0.802561,1.86955 0,0 z m 18.544587,-0.5475 c 0.68205,-1.32666 1.073121,-0.0345 0,0 z m 37.570831,-0.0104 c 0.567204,-1.41918 0.381011,0.91551 0,0 z m 17.41289,-0.19636 c 1.479162,-0.22839 -0.454915,0.45363 0,0 z m -1.46671,-0.2672 c 2.175787,-0.32814 -0.30831,0.45466 0,0 z m -68.92899,-0.27712 c 4.392944,-0.22299 4.366041,0.27275 0,0 z m 17.330208,0.003 c 2.654014,-0.24608 2.599559,0.30227 0,0 z m 18.405077,0.012 c 1.479159,-0.2284 -0.45492,0.45366 0,0 z m 3.696499,-0.0146 c 3.730574,-0.23345 3.285632,0.2907 0,0 z m 17.718213,-0.002 c 3.084024,-0.13215 11.131781,0.0956 3.505729,0.0822 0.06738,-0.0655 -5.279666,0.10105 -3.505729,-0.0822 z M 26.577549,185.20334 c -8.866109,-1.53661 -6.266253,-10.953 1.182408,-12.72473 4.675619,-3.63722 12.724868,-7.03723 15.044204,-11.0666 C 25.29502,151.18068 4.7659822,143.8787 -7.7513885,127.06711 -16.942946,115.45842 -19.319956,96.486315 -8.0803179,85.393409 2.6958941,74.769067 20.487766,76.791561 32.52632,84.087387 c 8.564298,5.159957 15.578575,12.734811 20.391433,21.461743 1.971761,-3.92362 1.831708,-2.05308 -0.11457,0.52602 C 44.816775,91.724022 30.504138,79.468262 13.493781,78.626943 1.9959401,77.21395 -10.160625,83.92655 -13.684672,95.220287 -18.664576,109.97714 -10.80934,125.79629 0.49742546,135.3323 13.148679,146.71393 29.301839,152.87459 43.727593,161.51451 c -4.324225,4.98702 -12.580448,8.79386 -18.519758,13.10426 -10.258564,4.91188 2.078165,12.67638 8.466006,12.3423 6.972871,-4.34901 12.625592,-11.0049 19.473429,-15.58554 0.248188,1.48255 -9.715022,7.35159 -12.788863,11.05991 -4.199953,4.5027 -8.187695,6.96236 -13.780858,2.7679 z m 44.522537,1.50672 c -1.124714,-1.05871 4.138161,2.31942 0,0 z m 4.580196,0.46405 c 4.118035,-2.60728 6.668651,-2.75339 0,0 z m -8.731249,-3.85735 c -2.971826,-2.44997 -4.157929,-3.90472 -0.354081,-0.56928 2.794485,2.25144 4.082676,3.87716 0.354081,0.56928 z m -16.751515,-1.00141 c -5.281209,-3.06074 0.432782,-7.17678 3.089652,-4.27042 3.916459,-4.17508 7.03091,3.35231 1.826842,5.15125 -1.8059,3.23479 -3.237919,0.67051 -4.916494,-0.88083 z m 5.484424,-0.36779 c 4.556105,-2.24262 -0.318173,-7.53323 -2.825496,-3.41309 -9.478349,-5.79341 -0.696894,11.10791 2.825496,3.41309 z m 27.428722,1.57357 c 2.519138,-1.75565 1.926987,-0.7497 0,0 z m 1.979337,-1.58498 c 0.927194,-1.20743 -0.335012,1.10102 0,0 z m -56.145822,-2.30473 c -6.892713,-2.29372 0.504627,-4.94115 3.079856,-0.983 5.117844,2.52942 -1.257868,3.01956 -3.079856,0.983 z m 4.204477,0.13528 c -1.320252,-2.10226 -9.873446,-4.10496 -5.053682,-1.06311 1.279434,0.38238 5.487277,3.42735 5.053682,1.06311 z m 39.447928,0.78039 c -0.280329,-1.78579 0.838324,1.44658 0,0 z m 12.952567,-0.91463 c 0.195214,-2.59204 0.195218,2.59201 0,0 z m -10.398035,0.9272 c 3.582461,-2.34032 5.905487,-2.36959 0,0 z m -12.984608,-1.39022 c -2.059598,-2.24703 2.479894,2.28747 0,0 z m 10.867941,0.60196 c 3.703975,-2.37952 5.81481,-2.46602 0,0 z m -13.361457,-2.67447 c -5.085717,-4.68838 5.134811,4.41722 0,0 z m -26.326041,0.0101 c -8.30876,-3.45848 6.147032,-7.49336 8.57817,-10.84456 3.220964,-5.15132 11.392592,1.53127 4.02304,3.90178 -4.008394,1.872 -7.850555,10.08524 -12.60121,6.94278 z m 5.027083,-1.07949 c 3.085508,-3.06469 15.673934,-10.68674 5.890467,-10.88781 -3.152786,3.56558 -13.406733,6.54857 -12.518393,10.57917 2.287009,1.3719 4.549187,3.14926 6.627926,0.30864 z m 30.807312,1.42211 c -2.622437,-2.61447 3.567775,2.88352 0,0 z m 10.9215,0.56728 c -0.622909,-2.14963 0.808695,0.55253 0,0 z m -2.189181,-0.88341 c 2.775087,-1.37287 -1.49288,1.1576 0,0 z m 6.461033,-0.42717 c -2.161568,-1.85274 2.526795,1.74677 0,0 z M 67.06468,175.59757 c -2.409789,-2.5842 2.848679,2.66314 0,0 z m -9.925255,-0.66146 c -2.020001,-2.22202 2.407023,2.24266 0,0 z m 18.485749,0.45245 c -3.433674,-3.49581 0.98952,-0.87095 0,0 z m 6.206671,-0.28445 c -2.92721,-2.28492 3.412605,2.08009 0,0 z m -16.490337,-0.96175 c -2.020001,-2.22202 2.407023,2.24266 0,0 z m -10.048385,-0.79375 c -3.157875,-3.28502 3.47785,3.26298 0,0 z m 24.422055,0.43258 c -2.927205,-2.28493 3.412605,2.08011 0,0 z m -16.090081,-1.09404 c -2.40979,-2.58418 2.848686,2.66314 0,0 z m 7.460723,-1.11846 c -6.906503,-4.58518 1.991993,0.6112 2.662562,1.78078 -0.899325,-0.57584 -1.776016,-1.18576 -2.662562,-1.78078 z m -9.312806,-0.46904 c -2.409789,-2.58418 2.848684,2.66314 0,0 z m 14.553151,0.44843 c -1.301328,-1.1651 1.926228,1.21118 0,0 z m -1.902653,-1.20232 c -3.875508,-3.11974 4.058815,2.66226 0,0 z M 59.92093,169.51215 c -2.409788,-2.58418 2.848686,2.66314 0,0 z m -1.472312,-1.19062 c -0.858146,-1.21755 1.476262,1.39156 0,0 z m 7.30979,-0.4862 c -2.443799,-2.06698 2.817958,2.03734 0,0 z m 5.011507,0.009 c -1.301323,-1.1651 1.92623,1.21119 0,0 z m 2.044683,-0.95204 c -3.735593,-4.11362 8.306614,-5.85303 11.394431,-8.96994 17.237411,-9.5033 35.524891,-22.12119 41.255301,-42.0328 2.60202,-11.18492 0.39601,-23.882655 -8.08267,-32.122262 C 101.05361,67.338306 71.919964,70.726399 56.566932,86.826296 50.780696,94.438886 45.639108,80.001391 38.70182,78.774931 23.488374,70.502859 2.3756179,70.879496 -10.373188,83.614092 c -11.256706,10.345493 -12.244095,28.144068 -4.919723,41.009778 10.3664083,19.13988 30.244254,30.08249 48.867484,39.7678 1.253747,6.20124 -8.886359,1.56221 -12.110319,-0.6874 -19.2282272,-9.56886 -38.738121,-23.15959 -45.96101,-44.39692 -4.574398,-13.80185 -1.302798,-30.268489 9.765449,-40.142124 C 3.9773503,61.51356 36.575084,65.210063 52.917251,84.306593 67.427728,67.971733 93.176802,62.682802 112.65204,72.875695 c 14.6762,7.478369 23.12271,24.891853 19.77947,41.052735 -4.06204,21.40253 -22.35651,36.29762 -40.70686,45.94119 -5.94097,2.30372 -11.823779,7.91628 -18.012501,7.64009 l -0.897551,-0.61785 z M 32.656302,166.6438 c 2.168457,-3.83236 -8.934136,-5.56905 -11.944122,-8.68705 -17.0808186,-9.8936 -35.027099,-23.03522 -40.155003,-43.20135 -3.366679,-12.70551 1.62628,-26.931447 12.429254,-34.490398 17.39999,-13.176373 43.995783,-8.173626 58.035714,7.701951 2.369909,4.368528 4.468698,-1.784179 6.859931,-3.032813 15.479018,-14.539734 42.729024,-17.433987 58.846374,-2.386849 12.68915,11.454056 13.06283,31.891729 3.76743,45.520029 -11.37384,17.85831 -31.019612,27.45027 -49.043874,37.14745 6.930448,5.59841 15.25495,-4.86548 22.406328,-6.8679 C 111.1652,148.64369 128.37077,134.1392 132.08969,113.59271 134.62307,99.52114 128.93668,84.246295 117.0239,76.081574 97.945791,62.526559 69.404689,66.843597 53.86605,83.889261 49.031772,82.855051 44.344544,75.460053 38.357689,73.524634 19.448535,63.815295 -7.2080956,67.068206 -19.677229,85.501291 c -10.235882,14.150933 -7.408559,34.002259 2.593577,47.472179 11.6613679,16.57785 30.03033,26.57088 48.072427,34.75146 l 0.553924,-0.31718 1.113603,-0.76438 z m 24.756711,0.93727 c 0.278016,-2.95643 0.617872,1.24385 0,0 z m 11.454249,-0.93906 c -3.875508,-3.11974 4.058818,2.66226 0,0 z m -4.960937,-0.12918 c -2.443797,-2.06699 2.817956,2.03736 0,0 z m -5.688542,-0.18394 c 1.766244,-2.70016 6.14135,-0.99684 1.82145,-1.26801 l -1.093846,0.82673 z m 7.735531,-1.65199 c -4.902943,-3.64813 5.139794,3.22596 0,0 z m -14.924593,-1.2724 c -5.912032,-7.0879 9.45482,-2.6701 5.733854,-0.69546 0.570146,-5.51896 -12.117248,-2.31959 -4.077431,1.3027 2.51686,1.31925 4.909144,-2.30023 0.614684,1.04641 -0.814985,-0.46818 -1.53159,-1.07996 -2.271107,-1.65365 z m 12.628109,-0.42369 c 0.691958,-4.16511 0.514818,1.1087 0,0 z m 1.175536,-1.71785 c 1.447691,-1.27138 1.385618,-0.2351 0,0 z m -6.746874,-1.76127 c -5.44205,-4.60916 -13.374659,-8.51343 -13.0355,-16.79652 -0.905003,-3.71159 3.426496,-16.65701 3.025073,-6.55086 0.885983,4.87145 -1.065359,18.30938 6.43498,15.59146 C 50.91426,140.51325 52.749503,128.1423 50.387994,116.6372 44.344797,101.23425 32.075764,85.870891 14.510325,84.298662 4.9768647,82.844081 -6.5796739,88.002991 -7.6980884,98.550339 -10.091153,114.34555 2.5557941,128.48872 16.280297,134.31825 c 8.647987,3.95753 21.088228,3.55908 26.180953,-5.70869 3.058476,-2.44737 2.950973,-18.11087 4.414654,-7.65061 2.101675,9.71797 -6.699743,19.1231 -16.399398,18.72616 -4.446632,-0.40253 -6.738042,0.41456 -1.433067,2.50881 7.656522,4.25158 15.208118,8.8586 21.766011,14.70008 -5.961348,5.50326 -11.412836,-6.92601 -17.889476,-8.4331 C 18.1961,139.46386 0.5461698,132.27793 -7.9058123,116.21852 -13.177845,106.90115 -12.487431,93.788954 -3.690306,86.810521 c 10.8875828,-8.856783 27.194728,-5.356375 37.523505,2.725408 8.937441,6.732451 15.524492,16.451361 19.332956,26.861111 1.398664,-3.63718 3.214974,-8.46608 1.21609,-1.9015 -2.546308,6.23335 -4.889929,-9.52797 -8.720511,-11.70885 C 37.080322,89.715822 21.38987,79.236729 5.2504885,82.812922 -6.5485722,85.011162 -13.274246,98.304123 -10.033117,109.42918 c 4.7103676,16.92356 21.04369,26.30773 35.479707,34.09061 7.79656,4.39234 15.423315,9.19689 22.079153,15.21058 6.496635,-3.25992 -6.477255,-7.25764 -8.655604,-10.23563 -3.881854,-3.21007 -13.7993,-6.6947 -13.833874,-9.14699 8.599827,0.96362 18.956615,-2.30595 21.123489,-11.763 1.049257,-3.42241 -0.08439,-11.51878 -1.206482,-3.32339 -2.244256,8.4605 -10.889609,14.09458 -19.537382,12.81483 -14.761398,-1.56471 -27.7257813,-12.94113 -32.784242,-26.66337 -2.888508,-8.94081 -0.6498897,-20.710603 8.80268,-24.700018 13.547848,-5.641123 29.332663,1.097055 38.203446,11.977753 6.278144,7.800775 12.465903,17.037045 12.305259,27.437325 0.704709,8.64505 0.08862,17.67669 3.104391,25.92327 2.927269,-2.63051 -3.081759,6.44239 -5.3003,0.44359 -2.185546,-5.83876 -1.654296,-12.20477 -2.457397,-18.29668 -2.909814,6.98351 -2.698404,16.73106 4.639917,20.89122 2.196797,3.03384 6.808174,1.14631 4.491995,3.49828 1.799745,1.37468 6.685957,4.58119 1.663853,1.91413 z m 8.069791,0.96249 c 2.139363,-1.59991 2.085939,-0.57769 0,0 z m -6.561666,-0.72796 c -0.194243,-3.35222 14.211432,-10.75642 5.25699,-5.09167 -1.737749,1.29045 -5.836978,3.9904 -5.25699,5.09167 z m 8.413749,-0.33037 c 2.139368,-1.59992 2.085937,-0.5777 0,0 z m 3.96875,-2.12965 c 2.882477,-1.84629 11.200135,-5.4692 3.824568,-1.77755 -1.26732,0.60727 -2.507367,1.27974 -3.824568,1.77755 z m -14.287499,-1.29112 c 1.790174,-2.08701 0.393115,0.2809 0,0 z m 1.058333,-0.79375 c 1.790177,-2.08701 0.393112,0.2809 0,0 z m 1.058333,-0.79375 c 1.790177,-2.08701 0.393112,0.2809 0,0 z m 1.058334,-0.79375 c 1.790157,-2.08701 0.393143,0.28091 0,0 z m 1.058333,-0.79375 c 1.790174,-2.08701 0.393115,0.2809 0,0 z m 20.108332,-0.55491 c 3.70394,-2.37949 5.814863,-2.46607 0,0 z m -10.451041,-2.3927 c 4.006797,-2.60839 -1.852805,1.58177 0,0 z m -11.478682,-0.45823 c 1.615877,-0.97773 2.33533,0.01 0,0 z m 6.848474,-0.0264 c 1.252343,-1.31147 1.42451,-0.33212 0,0 z M 55.87831,148.67621 c 0.231539,-1.19259 0.231539,1.19259 0,0 z m 17.420723,0.15091 c 1.447692,-1.27141 1.385617,-0.2351 0,0 z m 15.345832,-0.005 c 2.139365,-1.59994 2.085938,-0.57768 0,0 z M 62.38,148.12583 c 0.592588,-1.2378 -0.168118,1.39999 0,0 z m -1.99397,-0.37566 c 0.118971,-1.50885 0.25639,1.63372 0,0 z m 14.235919,0.2832 c 1.447696,-1.27141 1.385614,-0.23509 0,0 z m -18.479056,-0.68008 c 0.231539,-1.19259 0.231539,1.19259 0,0 z m 34.354055,0.41047 c 2.139358,-1.59993 2.08594,-0.57771 0,0 z m -27.739472,-0.93964 c 0.231543,-1.19256 0.231535,1.19258 0,0 z m 7.366557,0.4155 c 1.447692,-1.27141 1.385617,-0.2351 0,0 z m 6.217708,-0.28061 c 2.95961,-2.14413 1.059611,-0.0229 0,0 z m 16.007291,-0.25359 c 2.139366,-1.59992 2.085937,-0.5777 0,0 z m -31.665313,-1.73338 c 0.189232,-3.06134 0.189229,3.06136 0,0 z m 10.76323,1.47383 c 1.447695,-1.27141 1.385617,-0.23509 0,0 z m -30.572602,-0.40048 c -3.358558,-1.82565 -7.398012,-4.14627 -1.04003,-5.1906 2.205422,-2.94741 2.631779,6.48248 1.04003,5.1906 z m 0.217237,-2.72699 c 0.824647,-5.15717 -8.366632,1.10853 -0.828236,1.7394 1.55413,1.77385 0.510869,-1.76278 0.828236,-1.7394 z m 15.34084,2.05052 c 0.25224,-1.72743 0.163248,2.05599 0,0 z m 6.599439,-0.26459 c 0.118977,-1.50883 0.256384,1.63375 0,0 z m 15.558836,0.53992 c 2.836021,-1.93981 2.785885,-0.9225 0,0 z m 15.610416,0.008 c 1.447692,-1.27141 1.385617,-0.2351 0,0 z m 1.322916,-0.74448 c 4.651009,-3.59837 5.813129,-3.30038 0,0 z M 68.203508,144.3957 c 0.83965,-2.03056 0.355399,0.98584 0,2e-5 z m 6.683024,-0.0665 c 1.447691,-1.27138 1.385618,-0.2351 0,0 z m 7.14375,-0.53703 c 2.836021,-1.93981 2.785887,-0.9225 0,0 z m -18.670259,-2.50289 c 0.881343,-8.02951 -0.322889,6.80561 -0.002,0.29406 z m 3.803984,2.1791 c 1.479159,-0.2284 -0.45492,0.45366 0,0 z m 9.045442,0.0671 c 1.447692,-1.27138 1.385615,-0.2351 0,0 z M 56.724199,140.871 c 0.164899,-4.42982 0.200803,4.0401 0,0 z m 20.808167,1.86284 c 2.836018,-1.93983 2.785885,-0.92249 0,0 z m 6.879166,-0.25672 c 1.447687,-1.2714 1.385618,-0.23509 0,0 z m 15.610418,-0.51175 c 2.1548,-2.02906 2.08056,-0.9782 0,0 z m -28.638062,-0.62004 c 2.320687,-0.38424 0.478962,0.40747 0,0 z m 1.937193,0.0907 c 3.482352,-2.17164 0.03492,0.53071 0,0 z m 12.942534,-0.0251 c 2.836021,-1.93981 2.785887,-0.9225 0,0 z m -16.453775,-0.3238 c 1.479159,-0.2284 -0.45492,0.45366 0,0 z m -2.116667,-0.52916 c 1.479161,-0.22839 -0.454913,0.45363 0,0 z m 7.645317,-0.31578 c 2.77363,-1.9975 -2.030293,1.89678 0,0 z m 26.53554,0.39662 c 0.85663,-1.22554 0.93187,-0.20714 0,0 z m -35.454164,-0.42927 c -0.656021,-1.04207 1.938974,1.10936 0,0 z m 15.610416,0.14588 c 2.139368,-1.59992 2.085937,-0.5777 0,0 z m 20.902078,-0.48865 c 2.43734,-2.46837 2.62564,-1.63151 0,0 z M 64.684499,139.2689 c -1.256853,-1.1463 1.932687,1.22779 0,0 z m 8.548388,0.22475 c 2.639608,-0.39792 0.516321,0.40523 0,0 z m 16.470311,0.073 c 1.447691,-1.27138 1.385618,-0.2351 0,0 z m -29.011716,-2.26757 c 0.185059,-3.99858 0.185062,3.99856 0,0 z m 10.970441,1.93592 c 1.479162,-0.22839 -0.454915,0.45363 0,0 z m -1.322916,-0.26458 c 1.479162,-0.22839 -0.454915,0.45363 0,0 z m 21.198798,-0.56265 c 3.618824,-2.56537 1.587358,-0.58874 -0.643982,0.52294 L 91.2351,138.65358 Z M 67.4782,138.09288 c -0.656034,-1.0421 1.938971,1.10937 0,0 z m 18.520832,0.1412 c 3.534538,-2.28394 3.485957,-1.2689 0,0 z m -19.727034,-0.81726 c -1.301325,-1.1651 1.926231,1.21119 0,0 z m 41.555162,-1.76481 c 2.17134,-1.9166 9.5205,-10.57035 4.04768,-3.92506 -0.64659,1.06525 -7.65487,7.52755 -4.04768,3.92506 z m -43.33025,0.71153 c -3.48723,-2.71757 3.748833,2.30697 0,0 z m -8.044389,-1.31337 c 0.215645,-3.10577 0.168212,3.48415 0,0 z m 38.27776,1.37533 c 1.840876,-1.62023 4.07554,-2.15976 0,0 z m -19.248436,-0.37919 c 3.347638,-0.23511 3.308289,0.28811 0,0 z m 14.485937,0.0808 c 1.447688,-1.27138 1.385618,-0.2351 0,0 z m -16.718359,-0.33165 c 1.479162,-0.22839 -0.454915,0.45363 0,0 z m 6.598047,0.006 c 1.457014,-0.42943 0.264432,0.46307 0,0 z m -7.65638,-0.2701 c 1.479159,-0.2284 -0.45492,0.45366 0,0 z m 8.979296,0.006 c 1.457016,-0.42943 0.264432,0.46307 0,0 z M 62.58194,134.91625 c -1.43271,-2.15646 1.875034,1.88121 0,0 z m 19.927899,0.35005 c 1.479161,-0.22839 -0.454913,0.45363 0,0 z m 2.145066,-0.6315 c 5.238258,-1.58412 -4.298869,1.81451 0,0 z m 7.429543,0.1694 c 1.447692,-1.27138 1.385615,-0.2351 0,0 z m -14.485937,-0.34365 c 2.654014,-0.24608 2.599559,0.30227 0,0 z m -2.778124,-0.24707 c 1.457014,-0.42943 0.264432,0.46307 0,0 z m 6.879166,0 c 1.457014,-0.42943 0.264432,0.46307 0,0 z m 16.269909,0.0208 c 2.187518,-2.11465 3.879868,-2.14483 0,0 z m -25.067304,-0.37479 c -1.195073,-0.78355 3.023583,0.78658 0,0 z m 10.401431,0.0838 c 1.479158,-0.2284 -0.454918,0.45366 0,0 z m 3.489193,-0.0838 c 1.938973,-1.10936 -0.656025,1.04207 0,0 z M 60.42127,132.13975 c 0.215648,-3.10574 0.168212,3.48415 0,0 z m 1.562064,0.92604 c 0.212788,-1.65586 0.212788,1.65586 0,0 z m 22.643172,0.61301 c 1.479162,-0.22839 -0.454915,0.45363 0,0 z m 1.058333,-0.26458 c 1.479162,-0.22839 -0.454915,0.45363 0,0 z m -19.034138,-0.54687 c -0.858147,-1.21754 1.476263,1.39153 0,0 z m 4.119214,0.0516 c -1.492898,-1.15763 2.775258,1.37284 0,0 z m 17.750479,-0.0634 c 2.355181,-2.04479 4.116232,-0.73702 0,0 z m -66.520285,-0.8215 c -7.70865,-1.71055 4.967078,-7.26727 3.528802,0.25884 -1.027066,0.65115 -2.464797,-0.32041 -3.528802,-0.25884 z m 4.639939,-1.45112 c -4.04739,-6.38666 7.280075,-5.04096 5.346592,0.88102 -2.066342,0.80375 -4.95376,2.35062 -5.346592,-0.88102 z m 38.312161,0.8293 c -3.587641,-3.7693 3.942774,3.77476 0,0 z m 36.260361,0.33073 c 1.98978,-1.92535 -1.371365,1.88483 0,0 z m -4.630205,0.16468 c 1.790158,-2.08701 0.393137,0.28091 0,0 z m -40.394428,-1.88448 c 0.215648,-3.10574 0.168212,3.48415 0,0 z m 12.050263,1.25677 c -0.913272,-1.2999 1.624885,1.58026 0,0 z m -6.529253,-0.46302 c 0.118976,-1.50883 0.256382,1.63375 0,0 z m 36.029656,0.18793 c 3.870667,-3.56935 5.271237,-3.65104 0,0 z m 5.326057,-0.84938 c 3.97517,-3.79577 -3.353612,3.75445 0,0 z m -36.135652,0.0661 c -2.020004,-2.22202 2.407021,2.24264 0,0 z m -34.27558,-1.83793 c -4.891809,-7.22752 10.263274,-4.57223 3.43009,0.87129 -1.379013,1.45373 -3.014225,1.52317 -3.43009,-0.87129 z m 30.698591,1.17647 c -1.760299,-2.03078 2.067722,1.93821 0,0 z m -50.349457,-0.92604 c -8.7101131,-5.58908 8.798784,-4.63158 1.736351,0.91859 l -0.637838,-0.28065 -1.098518,-0.63794 z m 48.441801,0.33073 c 0.118977,-1.50883 0.256384,1.63375 0,0 z m 4.096127,-0.46302 c -3.451068,-5.36963 2.505317,2.95073 0,0 z m 41.53476,-2.05182 c 2.40687,-2.23536 9.75851,-12.40124 4.00831,-4.32775 -0.76533,1.36529 -9.22783,9.72958 -4.83319,5.19541 0.27496,-0.28922 0.54992,-0.57844 0.82488,-0.86766 z M 60.175684,124.996 c 0.164206,-7.01923 0.09943,7.22874 0,0 z m -42.436683,2.51815 c -5.730458,-7.51845 9.315659,-6.79772 3.686161,-0.45921 -0.975499,0.19996 -2.859354,1.7472 -3.686161,0.45921 z m 44.322382,0.27153 c -2.419047,-0.42909 1.17644,-0.21726 0,0 z M 102.98892,126.585 c 4.68451,-4.33636 -3.984376,4.08523 -0.28964,0.29966 z m 13.07703,-0.66296 c 4.04135,-5.62932 -3.46465,5.62795 0,0 z M 55.940927,123.4085 c 0.165624,-6.56642 0.101159,6.75966 0,0 z m -32.268483,0.28193 c -3.489865,-6.17312 7.786288,-4.58336 4.738442,0.62892 -1.795083,0.75727 -4.22991,2.58402 -4.738442,-0.62892 z m 14.687354,0.21403 c -0.81006,-4.26212 5.164483,-2.15525 0.813461,1.22383 z m 67.736512,-0.42981 c 3.84448,-3.75453 -3.71452,3.93326 0,0 z M 5.2266912,122.80552 c -5.21440418,-10.04317 6.8254388,5.29488 0,0 z m 3.3203797,0.16486 c -4.5783645,-6.06472 7.5070421,-7.01868 4.6213131,-0.40791 -1.222448,0.44863 -3.9774458,2.7394 -4.6213131,0.40791 z m 109.7861891,-0.8763 c 2.71735,-4.87253 -2.30975,5.19893 0,0 z m -87.822455,0.87421 c -6.271946,-6.23335 6.979779,-8.84036 4.369683,-1.22323 -1.259251,0.56901 -2.949285,1.96459 -4.369683,1.22323 z m 32.225783,-0.64017 c 0.170212,-1.01969 0.268371,1.20425 0,0 z m 45.776852,-1.71734 c 2.69163,-3.79347 1.28336,-0.85462 -0.65464,0.97615 l 0.0326,-0.11814 z m -46.041435,0.65901 c 0.170212,-1.0197 0.268373,1.20425 0,0 z m -47.281384,-0.15052 c -6.1973419,-6.29937 10.569553,-2.05742 2.116741,-0.0662 -0.621037,0.10986 -1.530693,0.62978 -2.116741,0.0662 z m 21.674863,-0.79682 c -6.159979,-5.78532 6.967462,-8.864 4.086735,-1.18695 -1.134625,0.58747 -2.764224,1.90331 -4.086735,1.18695 z m 25.387773,-0.8827 c 0.252246,-1.72741 0.163242,2.05601 0,0 z m -1.857423,-0.13229 c 0.212788,-1.65586 0.212788,1.65586 0,0 z m 59.213386,0.13229 c 0.21554,-1.47795 0.92718,-0.35971 0,0 z M 1.1349485,117.9184 c -5.4358085,-4.51105 4.9834453,-6.46804 3.5881101,-0.008 -0.9838002,1.38743 -2.8292365,1.98877 -3.5881101,0.008 z m 55.0177485,0.7276 c 0.118977,-1.50883 0.256384,1.63375 0,0 z m -34.303821,0.15058 c 2.475783,-2.43629 6.873774,-2.21372 1.092178,-0.0113 -0.215598,-0.003 -0.926053,0.49354 -1.092178,0.0113 z m 70.301718,-0.20067 c 2.049318,-0.41175 0.393457,0.42558 0,0 z m -1.546493,-0.67751 c -1.922785,-1.97951 2.692965,2.05389 0,0 z m 3.089896,0.52634 c 1.324509,-1.28082 2.277054,-1.30057 0,0 z m 26.587943,-0.72478 c 1.27267,-3.32024 -0.17241,1.56581 0,0 z m -59.64113,-0.26458 c 0.231539,-1.19259 0.231539,1.19259 0,0 z m 53.40405,0 c 1.27958,-1.91395 -0.68024,1.88067 0,0 z m -29.699474,0.0893 c 1.457014,-0.42943 0.264432,0.46307 0,0 z M 6.2394994,116.68549 c -5.42141257,-7.39809 8.7326446,1.05042 0.3037466,0.512 z m 50.1679766,0.24072 c 0.231541,-1.19259 0.231541,1.19259 0,0 z m 26.379722,-0.0157 c -2.382832,-1.92608 3.293463,2.00843 0,0 z m 3.476417,0.18039 c 1.79016,-2.08701 0.393143,0.28091 0,0 z m -25.37911,-0.8482 c 0.170221,-1.01969 0.268364,1.20428 0,0 z m 34.426523,-0.24253 c 0.118973,-1.50884 0.256388,1.63372 0,0 z m 16.352582,0.13229 c 1.27958,-1.91395 -0.68025,1.8807 0,0 z m -84.167379,-0.35681 c -0.376678,-5.74383 5.631207,-7.14594 4.578201,-0.77797 -1.224956,0.33913 -3.598082,2.33475 -4.578201,0.77797 z m 62.248744,0.0922 c 0.231539,-1.19259 0.231539,1.19259 0,0 z m 31.219315,0 c 0.38822,-2.64387 1.19496,-1.55747 0,0 z m -33.580957,-1.05834 c 0.212788,-1.65586 0.212788,1.65586 0,0 z m -26.234245,0.11025 c 0.170216,-1.0197 0.26837,1.20425 0,0 z m 20.658387,-0.11025 c 0.231539,-1.19259 0.231539,1.19259 0,0 z m -24.89172,-0.15434 c 0.170221,-1.01969 0.268364,1.20428 0,0 z m 33.052027,0.16996 c 0.567201,-1.41918 0.381013,0.91551 0,0 z m 4.911802,-0.20264 c -0.331029,-1.15803 0.918769,1.23697 0,0 z m -33.465913,-0.76107 c 0.170222,-1.01969 0.268366,1.20428 0,0 z m 0.754266,-0.52916 c -1.114124,-0.64284 1.332277,-4.8537 0.24337,0.16964 l -0.112833,0.66679 -0.130541,-0.83643 z m 35.70051,0.40322 c -2.382831,-1.92608 3.293463,2.00842 0,0 z m -64.648752,-1.59842 c -3.790073,-8.31154 10.796244,-1.96725 2.987366,1.38936 -1.330048,0.89826 -2.699078,0.19805 -2.987366,-1.38936 z m 48.810587,1.62973 c 0.567209,-1.41916 0.381,0.91553 0,0 z m 11.906249,-0.1479 c -1.55399,-1.40192 2.48987,1.39885 0,0 z m 7.143749,0.29698 c 1.79017,-2.08701 0.39314,0.28091 0,0 z m 14.83542,-0.0324 c 0.51317,-1.93537 1.15909,-1.03823 0,0 z m -24.695557,-0.42971 c 1.420506,-0.78829 -0.644714,0.81316 0,0 z m 22.052217,-0.23175 c 1.43391,-2.53169 -0.7674,1.93336 0,0 z m 8.49039,0 c 0.11986,-2.11582 0.88624,-1.30899 0.0558,0.14661 z M 86.131324,112.6749 c -1.964062,-1.8323 2.927679,1.85641 0,0 z m 6.151562,0.37188 c 1.457013,-0.42946 0.264428,0.46311 0,0 z m -95.0330781,-1.68312 c -3.7308664,-6.24997 7.0415676,-4.83191 4.3980306,0.49541 -1.37907554,0.6602 -3.9923346,2.21778 -4.3980306,-0.49541 z m 85.8986541,1.17607 c 1.871608,-1.32632 -1.170487,1.26213 0,0 z m 13.797516,0.0296 c -0.328809,-2.39209 0.812718,1.40287 0,0 z m 5.192632,-1.04676 c -4.290857,-7.95943 1.43627,1.24798 0,0 z m 11.64977,0.50887 c 0.21554,-1.47795 0.92718,-0.35971 0,0 z m -74.38635,-2.4474 c -3.361451,-8.13708 5.336098,1.30328 0.748289,1.40773 z m 57.465806,1.36702 c 0.170217,-1.0197 0.268373,1.20424 0,0 z m -17.676789,-0.029 c 2.17579,-0.32814 -0.308314,0.45466 0,0 z m 43.097673,-0.34581 c 0.23155,-1.19259 0.23155,1.19259 0,0 z m -44.865126,-0.54947 c -2.450687,-6.7627 2.005027,3.12422 0,0 z m 3.519232,0.44483 c 3.235825,-3.40858 -1.018731,1.60006 0,0 z m 36.297924,-0.31428 c 0.17024,-1.0197 0.26833,1.20427 0,0 z m -61.6688,-0.20505 c 2.461028,-5.9885 2.435944,-3.38417 0,0 z m 61.93339,-0.85329 c 0.17024,-1.01969 0.26833,1.20428 0,0 z m -2.64584,-0.26458 c 0.17024,-1.01969 0.26832,1.2043 0,0 z m 7.71341,-0.37483 c 0.21279,-1.65586 0.21279,1.65586 0,0 z m -63.561377,0.43343 c 2.121121,-5.28943 2.130791,-2.77998 0,0 z m 40.153604,-0.0914 c 2.320683,-0.38427 0.478957,0.4075 0,0 z m -16.828495,-0.60662 c 0.231539,-1.19259 0.231539,1.19259 0,0 z m -53.75219,0.0216 c 0.33839,-2.46295 1.477565,0.88828 0,0 z m 89.185468,-0.17598 c 0.17024,-1.01969 0.26833,1.20428 0,0 z m -2.64583,-0.26458 c 0.17023,-1.0197 0.26833,1.20425 0,0 z m -83.832064,-0.70556 c -2.098687,-4.72002 3.02249,-9.513997 4.360917,-2.35256 0.575053,1.49956 -3.363293,2.99571 -4.360917,2.35256 z m 50.231841,-0.56403 c -2.198579,-2.66121 2.452363,2.40705 0,0 z m 23.585763,0.48175 c 3.43493,-3.71652 -0.78589,1.60941 0,0 z m 12.95556,-0.24845 c 0.11903,-1.50887 0.25594,1.63387 0,0 z m -16.45476,-0.26354 c -1.924771,-2.59929 2.36657,2.3312 0,0 z m 13.79913,0.13125 c 0.23154,-1.19259 0.23154,1.19259 0,0 z m 7.459,-2.11667 c 0.18506,-3.99859 0.18506,3.99859 0,0 z m -127.4548435,1.25677 c -2.4677182,-4.88822 3.3134749,-9.499516 4.15279191,-2.306 0.72923124,1.44006 -3.55754031,3.82796 -4.15279191,2.306 z m 82.8511345,0.0216 c 1.673738,-0.72571 -0.160729,0.69255 0,0 z M 57.9532,105.28454 c 1.279559,-1.91392 -0.680254,1.8807 0,0 z m 57.74055,-0.52916 c 0.21279,-1.65586 0.21279,1.65586 0,0 z m 2.6845,-2.11667 c 0.1745,-5.409516 0.1745,5.40952 0,0 z m -81.784815,0.33073 c -3.771695,-11.008119 6.981616,6.72771 0,0 z m 22.153515,0.99219 c 1.279561,-1.91395 -0.68024,1.88067 0,0 z m 42.33333,-0.24897 c 0.56719,-1.41919 0.38103,0.91552 0,0 z m -22.688019,-0.198 c 2.049318,-0.41175 0.393457,0.42558 0,0 z m -16.022249,-0.89629 c 2.668125,-3.909459 -1.443622,2.99227 0,0 z m 14.211173,-0.0458 c -1.760298,-2.03078 2.067723,1.93822 0,0 z m 4.287581,0.0791 c 0.858514,-1.94732 1.177249,-0.74658 0,0 z m 10.372323,-0.19371 c 1.479162,-0.22839 -0.454915,0.45363 0,0 z m 11.091551,-0.11667 c 1.4205,-0.78831 -0.6447,0.81314 0,0 z m 2.71639,0.0328 c -0.75779,-0.9569 1.47061,0.86665 0,0 z m -50.006247,-0.52917 c 1.279561,-1.913952 -0.680245,1.8807 0,0 z m 34.150452,-0.43256 c -1.861498,-5.883529 1.05016,1.07606 0,0 z m 14.339475,0.51379 c 2.17579,-0.32814 -0.30832,0.45466 0,0 z M 0.30091399,100.98961 C -2.24518,95.451259 8.6947109,97.139094 1.5725369,100.62899 1.035701,100.85635 0.46696701,102.5537 0.30091399,100.98961 Z M 61.3869,100.03182 c 3.929084,-4.869754 1.231792,-1.06578 -0.949768,1.54856 l 0.222698,-0.45489 z m 32.478515,0.7336 c 0.592584,-1.237813 -0.168111,1.39997 0,0 z m 28.712835,-0.37567 c 0.25208,-1.727455 0.16394,2.05626 0,0 z m -66.741717,0.13229 c 1.279561,-1.91393 -0.68025,1.8807 0,0 z m 7.672917,0.42928 c 1.790164,-2.086998 0.393129,0.28087 0,0 z m 35.525346,-0.0835 c 2.175794,-0.32814 -0.308323,0.45466 0,0 z m 1.251734,-0.18522 c 0.79732,-0.872873 0.80643,0.35916 0,0 z m -3.044175,-0.691385 c -1.432713,-2.156472 1.875033,1.881195 0,0 z M 115.69375,99.46371 c 0.21279,-1.655858 0.21279,1.65586 0,0 z m -85.8884,-0.123221 c -7.698993,-5.282358 6.234105,-6.69309 2.23182,0.248719 -0.629999,0.585682 -1.829032,0.540572 -2.23182,-0.248719 z m 35.259369,-0.365251 c 4.229427,-4.814866 -2.571699,3.612882 0,0 z m 11.732025,-0.44629 c 2.68234,-2.181639 -2.151662,2.159222 -0.113795,0.119706 z m 3.890596,-0.05742 c -2.0596,-2.247017 2.479898,2.287482 0,0 z m 37.36805,0.198437 c 0.23154,-1.192583 0.23154,1.192585 0,0 z m 4.23333,0 c 0.23155,-1.192586 0.23155,1.192588 0,0 z m -64.870384,-0.52117 c 2.755625,-3.416671 -1.706336,2.838765 0,0 z m 39.225413,-0.008 c 0.212788,-1.655861 0.212788,1.655861 0,0 z m -7.734301,0.349687 c 1.210838,-1.640281 1.794396,-1.614058 0,0 z M 9.6667442,97.837369 c -9.28383366,1.149394 1.3811638,-7.589781 1.6327078,-0.218628 0.743381,1.34628 -1.6354834,0.227285 -1.6327078,0.218628 z M 93.061882,97.735558 c -1.964316,-2.320317 2.713019,2.315292 0,0 z m 22.347678,0.140653 c 0.23154,-1.192585 0.23154,1.192583 0,0 z M 34.279787,97.360183 c -1.30316,-3.736283 2.864792,2.966787 0,0 z m 50.611302,0.59987 c 1.479158,-0.228416 -0.454906,0.453636 0,0 z M -4.0624693,97.148606 c 1.8414816,-3.586018 0.91609,2.762213 0,0 z m 17.6219133,0.328981 c -6.4975453,-4.193795 5.816411,-8.422587 3.220375,-1.252646 -0.672255,1.109304 -1.911805,2.182078 -3.220375,1.252646 z m 64.968194,0.211494 c 2.320129,-0.384309 0.479777,0.40824 0,0 z m 39.242282,-0.231794 c 0.17023,-1.019691 0.26833,1.204272 0,0 z m 4.25422,-0.110243 c 0.23154,-1.192582 0.23154,1.192582 0,0 z M 82.931185,97.016315 c -1.760296,-2.030789 2.067724,1.938224 0,0 z m 3.993888,0.06615 c 1.989789,-1.925341 -1.371393,1.884846 0,0 z m 4.172223,-0.183354 c 2.175472,-0.328134 -0.307649,0.453999 0,0 z m 5.749652,0.0039 c 1.21083,-1.640279 1.794404,-1.614063 0,0 z M -1.2983035,96.439269 c -3.3614449,-4.92775 4.705245,-9.158338 4.1593893,-1.652005 -0.6767166,1.022275 -2.96985823,2.307548 -4.1593893,1.652005 z m 59.7806705,0.278713 c 1.79015,-2.086981 0.393153,0.280858 0,0 z m 5.556249,0.0171 c 2.538223,-2.665238 1.718567,-1.309445 0,0 z m 3.836458,-0.975543 c 3.975174,-3.795761 -3.353602,3.754446 0,0 z m 46.984426,0.352369 c -1.40124,-3.790259 0.69751,0.696911 0,0 z M 59.672992,95.230377 c 1.989787,-1.925338 -1.371397,1.884848 0,0 z m 28.219899,0 c 0.231541,-1.192583 0.231541,1.192583 0,0 z m 11.141905,0.08123 c 2.175474,-0.328134 -0.307649,0.453999 0,0 z M 116.2166,93.502086 c -2.23552,-5.081434 2.76979,5.009868 0,0 z m -50.193609,0.934541 c 1.989788,-1.925339 -1.371394,1.884848 0,0 z m 16.288645,0.213192 c 1.273776,-2.730029 0.591406,0.07372 0,0 z m 31.732274,-0.74465 c -3.83343,-6.134305 1.07214,0.687279 0,0 z m -51.725085,-1.53745 c 3.007903,-3.125047 7.348773,-6.403225 1.671319,-1.398033 -1.932385,1.815582 -5.449997,5.231448 -1.671319,1.398033 z m 25.152426,1.617299 c -0.33103,-1.158019 0.91877,1.23697 0,0 z M 4.1713485,93.475361 c -5.3908418,-5.918608 5.8743255,-8.727564 4.7953166,-1.247859 -0.6312448,1.151532 -3.911763,2.783586 -4.7953166,1.247859 z m 14.2021005,0.0349 c -2.569291,-4.740872 7.080847,-5.321729 5.604265,0.329634 -1.79318,-1.114403 -4.208321,0.57668 -5.604265,-0.329634 z m 6.778537,-0.999903 c -4.367832,-7.174689 9.631487,1.970807 0.74381,1.391715 z m 44.785175,1.487215 c 2.297883,-2.485372 4.671781,-3.356147 0,0 z M 120.82442,93.76494 c -0.69382,-1.93659 0.97475,1.239492 0,0 z M 68.139658,92.584544 c 3.975172,-3.795761 -3.353601,3.754446 0,0 z m 18.123957,0.264583 c -0.757783,-0.956889 1.47067,0.866605 0,0 z m -1.389062,-0.439811 c 1.457014,-0.429436 0.264431,0.463078 0,0 z M 10.584198,91.245581 c -5.8489424,-5.750154 6.728675,-6.300273 3.921249,-0.703894 -1.067982,0.225679 -3.027773,2.069673 -3.921249,0.703894 z m 59.407543,-0.248537 c 1.989789,-1.925338 -1.371397,1.884848 0,0 z m 3.042708,0.429272 c 1.790171,-2.086997 0.393119,0.28089 0,0 z m 41.539581,-0.693855 c -1.67053,-2.811289 2.28252,2.845745 0,0 z m -4.10104,-1.536287 c -8.69039,-7.853548 5.67806,4.695834 0,0 z m 8.19225,0.411808 c -1.52947,-3.141964 2.69174,3.960868 0,0 z m -47.747457,0.760001 c 1.790151,-2.087004 0.393152,0.280892 0,0 z m 1.058333,-0.790114 c 2.154803,-2.02904 2.080558,-0.978212 0,0 z m 39.819794,-1.9507 c -2.72212,-3.280181 5.3222,5.164063 0,0 z m -95.234997,1.194337 c -2.032377,-4.162569 8.520209,0.334692 0.61455,0.538438 l -0.314345,-0.136265 -0.300207,-0.402173 z m 59.913119,0.209781 c 1.447693,-1.271387 1.385617,-0.235096 0,0 z m 1.322917,-0.798779 c 2.139364,-1.599927 2.085938,-0.577695 0,0 z m 39.530071,-0.476609 c -1.7603,-2.03079 2.06771,1.938221 0,0 z m -42.705071,-0.04753 c 1.447693,-1.271387 1.385615,-0.235099 0,0 z m 1.322917,-0.79375 c 1.44769,-1.271386 1.385617,-0.2351 0,0 z M 115.49013,85.63923 c -4.35342,-4.522665 4.47929,4.361723 0,0 z m -34.518181,0.859896 c 1.938973,-1.109365 -0.656024,1.042074 0,0 z M 69.330283,86.361625 c 3.022995,-2.443918 6.454626,-3.732533 1.444324,-0.816431 l -0.733352,0.440329 z m 36.777077,-0.391664 c -2.54574,-1.830586 3.26745,1.649815 0,0 z m -23.812495,0 c 1.938974,-1.109364 -0.656021,1.042074 0,0 z m -2.645833,-1.058333 c 3.912959,-1.910598 -2.620901,1.841866 0,0 z M 108.07616,84.76474 c -1.30132,-1.165091 1.9262,1.21119 0,0 z M 85.949422,84.73089 c 1.47916,-0.228417 -0.454905,0.453636 0,0 z m 1.058334,-0.264583 c 1.479159,-0.228418 -0.454909,0.453638 0,0 z m 1.041797,-0.259071 c 1.457014,-0.429436 0.264431,0.463078 0,0 z m 13.510287,-0.0055 c 1.47916,-0.228414 -0.45491,0.453632 0,0 z m 5.07669,-0.216135 c -1.55407,-1.401894 2.48942,1.398475 0,0 z m 6.72174,-0.198437 c -1.81633,-2.087303 2.17496,2.030814 0,0 z m -23.985801,0.1555 c 1.457014,-0.429439 0.26443,0.463082 0,0 z m 10.847921,0 c 1.457,-0.429436 0.26443,0.463079 0,0 z M 91.227637,83.66618 c 2.320131,-0.384309 0.479778,0.40824 0,0 z m 7.542576,0.0038 c 2.175477,-0.328134 -0.30765,0.453999 0,0 z M 83.882365,83.191836 c 4.248789,-1.469821 -2.276403,1.388768 0,0 z m 10.511286,0.205917 c 2.24681,-0.251265 2.676628,0.299707 0,0 z m 10.126209,-0.338208 c -0.65602,-1.042078 1.93898,1.109365 0,0 z m 7.19754,-0.378108 c -3.50074,-2.725003 3.38384,2.077761 0,0 z M 75.609727,82.497546 c 1.42051,-0.788292 -0.644714,0.813149 0,0 z m 10.339695,0.116675 c 1.47916,-0.228415 -0.454904,0.453634 0,0 z m 1.058334,-0.264584 c 1.479158,-0.228415 -0.454905,0.453633 0,0 z m 15.610414,0 c 1.47916,-0.228415 -0.45491,0.453633 0,0 z M 88.049553,82.090566 c 1.457014,-0.429436 0.264431,0.463078 0,0 z m 13.510287,-0.0055 c 1.47916,-0.228416 -0.45491,0.453635 0,0 z M 89.77438,81.817858 c 2.17547,-0.328138 -0.307647,0.454003 0,0 z m 10.31875,0 c 2.17547,-0.328136 -0.307651,0.454002 0,0 z M 77.796949,81.472045 c 1.938973,-1.109364 -0.656023,1.042075 0,0 z m 14.0927,0.07472 c 2.903242,-0.375663 0.608151,0.390796 0,0 z m 5.952571,0.0027 c 2.32013,-0.384313 0.479781,0.408243 0,0 z m 11.17556,-0.474329 c -1.55408,-1.401897 2.48942,1.398476 0,0 z M 79.119866,80.942878 c 1.938973,-1.109362 -0.656025,1.042074 0,0 z m 27.252084,-1.058333 c -0.65602,-1.042074 1.93897,1.10937 0,0 z M 83.568173,79.439221 c 1.479158,-0.228414 -0.454906,0.453633 0,0 z m 1.058333,-0.264583 c 1.479158,-0.228414 -0.454906,0.453633 0,0 z m 19.843744,0 c 1.47916,-0.22842 -0.45489,0.453637 0,0 z M 85.684839,78.910054 c 1.479158,-0.228416 -0.454906,0.453636 0,0 z m 1.322917,-0.264583 c 1.479158,-0.228414 -0.454906,0.453633 0,0 z m 1.30638,-0.259071 c 1.457014,-0.429436 0.264431,0.463078 0,0 z m 12.700004,0 c 1.457,-0.429433 0.26443,0.463076 0,0 z M 90.298511,78.114661 c 2.049316,-0.411748 0.393456,0.425576 0,0 z m 8.995833,0 c 2.049326,-0.411748 0.39346,0.425575 0,0 z m -5.282006,-0.278012 c 4.080891,-0.229142 3.635492,0.285351 0,0 z"
         id="path9" /><path
         style="fill:#faa113"
         d="m 102.77928,218.3015 c -7.071972,-3.78033 6.04615,-2.33527 3.2164,-5.66105 -2.08166,4.51162 -8.608819,1.15327 -1.87849,-0.20552 1.27682,-1.94382 -5.822082,2.50392 -1.70279,-1.23081 7.06947,-3.39448 8.39451,9.94153 0.36488,7.09738 z m 3.04903,-1.09083 c 6.12212,-3.73741 -4.28791,0.78325 -2.77413,0.46852 0.94435,0.12104 1.91861,-0.0572 2.77413,-0.46852 z m -36.12641,0.8118 c -5.561757,-2.7886 2.464945,-6.63199 4.015184,-6.93485 6.641124,3.1064 -8.292223,7.46047 0.08498,5.30102 4.600548,-3.89661 -1.788317,5.09786 -4.100162,1.63383 z m -33.274856,-0.263 c -6.515027,-5.84475 7.241192,0.6217 4.301764,-6.61689 4.915729,3.08185 0.396225,9.25243 -4.301764,6.61689 z m 3.835908,-0.31375 c 1.28372,-1.68983 -4.780718,1.90708 0,0 z m -4.86548,-3.58638 c -2.340094,-4.45791 9.052435,-3.92245 2.555578,-0.18719 l -0.947967,0.23683 -1.607611,-0.0496 z m 32.722948,-1.1851 c 2.445836,-5.11657 6.186616,-0.60053 0,0 z M 26.692394,184.76788 c -9.391348,-1.72273 -4.522545,-10.7175 2.052168,-12.40689 4.820384,-3.58379 11.759652,-6.67218 14.983031,-10.84648 C 25.370027,150.59074 3.4667395,143.03977 -8.9716956,124.54313 -17.262776,112.68054 -18.094444,93.960977 -6.0972179,84.19714 5.2147501,75.15531 21.96554,77.865657 33.45613,85.197004 c 8.279133,5.094506 14.77061,12.709704 19.350127,21.205166 -1.141631,6.12744 -2.28869,4.42223 -4.329404,-0.0786 C 40.467215,92.385664 25.739154,80.148797 8.7646424,81.813862 -4.1895987,82.123998 -14.064486,95.897706 -10.735973,108.27599 c 3.6982039,16.66525 19.3712561,26.59768 33.358739,34.18598 8.794839,4.84088 17.434452,10.08937 24.941221,16.79757 7.695048,-3.61729 -5.862437,-8.145 -8.815489,-11.3377 -3.475639,-2.82844 -12.328438,-6.16054 -12.494104,-8.14772 8.036455,0.89838 17.361112,-2.63246 20.016496,-10.8648 2.220584,-3.39593 -0.627719,-18.62795 -1.131182,-7.51293 -1.235719,8.86477 -9.325511,16.3486 -18.535016,15.28653 C 10.592215,135.43813 -4.1765819,122.66562 -7.6729455,106.99743 -9.4332296,98.336398 -5.7027139,87.94895 3.4700985,85.355914 18.512887,80.76548 34.370161,89.672001 42.592182,102.18091 c 4.756019,7.1411 9.492305,15.02346 8.933569,23.93803 0.649192,8.54216 0.287073,17.34912 3.062896,25.5635 -7.158599,3.23617 -5.739848,-9.88369 -6.449515,-14.38331 0.225272,-4.38686 -0.829088,-7.94017 -2.164005,-1.61061 -2.507786,6.99914 -0.327883,15.67307 6.49304,19.34758 2.315474,1.51725 11.800934,8.54285 3.984373,5.99133 -4.115972,-5.51275 -10.343501,1.582 -3.452647,3.92065 -0.533355,2.28458 1.124235,5.6195 -1.042991,7.12081 -6.161297,4.78276 -11.695622,10.51571 -18.12447,14.85253 -2.601003,0.60468 -4.879088,-1.19709 -7.140038,-2.15354 z m 6.947489,-4.10544 c 0.914472,-3.56796 -11.804309,-6.16286 -5.903429,-1.62675 1.820487,0.39122 4.091759,3.05605 5.903429,1.62675 z m 3.80811,-3.30163 c 2.562267,-3.91055 13.023397,-7.44997 10.649879,-11.70943 -6.123519,-3.55881 -12.129965,6.50744 -17.953312,8.85471 0.623468,1.59151 5.503411,4.89124 7.303433,2.85472 z m 4.208471,-33.91012 c 1.555171,-6.18988 -10.567949,0.0586 -2.461369,1.49223 2.22116,1.79811 2.952399,1.74533 2.461369,-1.49223 z M 25.528911,132.29281 c 1.609011,-7.73428 -11.318914,-1.85505 -3.528802,-0.25884 1.064005,-0.0616 2.501736,0.90999 3.528802,0.25884 z m 5.727436,-0.45894 c 4.104053,-4.20658 -7.50342,-8.95054 -5.074677,-2.23023 0.795305,3.06907 2.120668,3.62087 5.074677,2.23023 z m 4.034135,-1.98506 c 8.157352,-3.91273 -5.870781,-10.0366 -3.008922,-2.31361 0.570786,1.13967 1.258259,4.01089 3.008922,2.31361 z m -19.550771,-0.52965 c 3.474772,-4.32311 -6.3941617,-7.28275 -5.046228,-2.26 1.461389,0.71121 3.313518,3.16602 5.046228,2.26 z m 5.685451,-2.26422 c 5.401733,-4.25622 -6.551144,-8.57139 -4.505523,-1.59705 0.263698,3.013 2.385181,2.93037 4.505523,1.59705 z m 5.580048,-2.09827 c 6.023867,-1.87774 -4.116103,-9.75984 -3.964119,-2.78012 0.815743,1.90718 1.366143,4.75407 3.964119,2.78012 z m 12.973058,-0.99521 c 2.811744,-7.39718 -5.396956,2.49025 0,0 z m -32.8250653,0.0695 c 0.2407064,-5.67719 -6.4107827,-3.8732 -0.8787012,-0.18137 l 0.6719813,0.48493 z m 4.9476263,-0.87722 c 5.938047,-3.94041 -6.7839732,-8.75288 -4.0616592,-1.38285 0.4048633,2.62302 2.1579352,2.54548 4.0616592,1.38285 z m 21.695832,-0.79375 c 6.051262,-3.96332 -6.979755,-8.95306 -4.386112,-1.79572 0.429321,2.83306 2.129668,3.21303 4.386112,1.79572 z m -15.181032,-1.82916 c 4.88666,-2.5098 -9.4962306,-4.89649 -3.425008,0.58842 1.041171,0.73218 2.423357,-0.34026 3.425008,-0.58842 z m 21.273903,-0.75262 c 6.211146,-4.4419 -6.887862,-8.55146 -4.031695,-1.54263 0.420331,2.52051 2.047638,2.83083 4.031695,1.54263 z M 3.7101601,118.83088 c 4.6395114,-3.81634 -6.2769649,-8.17542 -3.54941861,-2.23207 0.97282701,0.75277 1.80586921,3.86929 3.54941861,2.23207 z m 20.4406179,-0.51135 c 5.139623,-2.59662 -2.004192,-0.99888 -2.147051,0.65996 0.768899,0.13673 1.419621,-0.63651 2.147051,-0.65996 z M 8.2723276,117.01662 c 4.3968184,-1.61882 -7.76862106,-6.64614 -1.9354077,-0.20767 l 0.5531394,0.64643 z m 22.7886264,-1.51723 c 3.74351,-2.63479 -2.697086,-8.72197 -3.250436,-1.59711 -1.6913,2.78156 1.576465,2.8634 3.250436,1.59711 z m 6.081378,-2.38025 c 5.303256,-3.49967 -6.165276,-8.87403 -4.353364,-1.90549 0.676641,2.56531 2.054959,3.41923 4.353364,1.90549 z M 0.70463606,112.32061 c 5.02021734,-2.51466 -5.21293406,-9.12318 -4.00169786,-2.33967 0.4382991,1.98965 1.8135081,4.1025 4.00169786,2.33967 z M 41.429872,111.03428 c 1.28904,-4.4812 -4.981919,-7.10741 -2.027842,-1.45024 0.05304,0.52053 1.135841,2.60615 2.027842,1.45024 z m -12.05167,-3.08829 c -0.670342,-2.15796 -0.950999,1.84971 0,0 z m 4.309461,-1.25453 c 5.978889,-1.82715 -3.622682,-9.699231 -2.522717,-2.56117 -0.259013,2.1085 -0.163757,4.4669 2.522717,2.56117 z m -35.791118,-1.07619 c 5.6437448,-2.60506 -3.8061078,-9.874923 -2.6459817,-2.92529 -0.1221683,1.75948 -0.054753,5.23408 2.6459817,2.92529 z m 41.132395,-1.38182 c 1.203271,-3.51438 -5.806907,-6.865811 -2.435505,-1.26401 0.239714,0.92151 1.468372,2.72842 2.435505,1.26401 z M 3.7226118,98.799398 c 1.0457611,-5.417584 -7.2792558,2.774862 -2.5496519,2.237652 0.7978143,-0.80026 1.5536992,-1.674492 2.5496519,-2.237652 z m 28.3145622,0.78981 c 4.206874,-4.599352 -7.085606,-7.403443 -3.886987,-2.077531 1.274632,0.758024 1.904791,3.563243 3.886987,2.077531 z M 11.386536,98.101813 C 12.705519,90.700885 0.59296369,97.713579 8.3570179,97.493294 9.0827625,97.053079 11.04552,99.157738 11.386536,98.101813 Z M 35.463618,97.79342 C 34.175267,94.8159 33.184125,97.534093 35.336041,98.106682 Z M -3.319478,97.71561 c 1.8415532,-3.527512 -2.7264162,-0.08676 0,0 z m 19.461205,-0.699296 c 4.949277,-6.218401 -8.4928818,-5.821758 -3.212706,0.02867 0.893487,0.827369 2.448315,1.187336 3.212706,-0.02867 z M 1.5308071,95.88096 c 4.5095777,-3.923119 -4.677374,-8.734999 -3.5224235,-1.05894 0.00678,2.251974 2.19399475,2.093529 3.5224235,1.05894 z m 6.1169254,-2.512992 c 5.2793575,-3.67708 -5.8360986,-9.491154 -4.540773,-2.622753 0.5479036,2.781538 1.7168697,4.414111 4.540773,2.622753 z m 14.8441435,0.247506 c 4.796998,-0.591165 -3.783246,-7.637581 -4.666063,-1.641618 0.102272,3.656973 2.842479,0.661998 4.666063,1.641618 z m 5.827992,-0.325629 c 3.468936,-1.705031 -7.891211,-6.57265 -3.167882,-0.779489 0.230476,1.895359 2.00732,1.745773 3.167882,0.779489 z M 13.365672,91.082377 c 5.957013,-6.874021 -10.7235933,-3.834624 -1.256217,0.484311 z m 5.468178,-2.237451 c 4.829661,-2.103757 -7.165224,-2.136709 -1.139545,0.398764 L 18.83385,88.844929 Z M -8.4772384,143.1861 c -2.0595986,-2.24701 2.4799036,2.2875 0,0 z m 3.5752554,-3.83645 c -2.4097925,-2.5842 2.8486726,2.66312 0,0 z m 118.682263,-2.67959 c 0.85663,-1.22554 0.93187,-0.20714 0,0 z M 52.926117,116.11684 c 0.762059,-0.50417 0.617459,0.90879 0,0 z m -73.4821,-10.03855 c 0.202621,-2.12328 0.202617,2.12331 0,0 z M 92.828589,68.062138 c 1.479158,-0.228416 -0.454907,0.453636 0,0 z"
         id="path8" /><path
         style="fill:#65708a"
         d="m 1.3852863,218.2087 c -0.70145004,-3.85207 4.0271342,-4.29027 2.3283332,-9.20142 0.4489312,-4.3678 0.019175,-8.28483 -2.6373053,-10.7217 3.1112559,-5.29726 11.8828808,-0.89975 12.8070458,5.06687 4.12661,9.40416 5.266372,-7.8546 10.793821,-7.03346 5.097704,-1.9127 9.361334,2.80247 3.902819,4.91249 0.04558,4.30969 0.09117,8.61937 0.13675,12.92906 9.166098,3.35507 -7.253262,7.41316 -8.06979,2.38125 2.581558,-2.84107 4.107243,-7.14072 2.425952,-11.63285 -2.749364,6.62936 -8.781078,14.13298 -11.929193,3.10004 -3.013878,-7.89921 -4.3034119,7.2876 0.41973,7.73246 1.124878,4.89688 -7.5911446,2.16281 -10.1781627,2.46726 z m 9.7366657,-1.52527 c -3.1125511,-2.73476 -3.814408,-8.4209 -2.2999272,-12.90943 2.5800482,1.85232 5.8804172,14.30021 9.3617092,8.37429 1.93751,-3.04323 6.091864,-12.34535 5.569688,-4.14164 1.436789,4.37796 -1.510681,6.06452 -2.577303,8.55847 -0.356014,2.90455 4.280779,0.8163 6.21367,1.43195 4.920075,1.42968 4.002865,-3.20741 0.998671,-4.57498 0.0819,-4.21545 -0.704422,-9.53388 0.354484,-13.24084 3.904571,-0.33874 1.965372,-4.76867 -1.426543,-3.21856 -2.634308,-0.0997 -5.505551,-0.60917 -6.187315,2.66733 -2.160305,3.93546 -5.444173,11.63051 -7.955989,3.33059 -1.9703,-2.14198 -2.293056,-7.14969 -6.1501761,-5.99795 -2.2120714,0.22314 -7.63844718,-1.20327 -5.1020967,2.684 3.7882072,2.21044 3.111214,12.42384 0.6021704,15.30767 -4.0620842,4.6055 5.6019991,2.68088 8.5989574,3.04271 0,-0.43787 0,-0.87574 0,-1.31361 z m 40.682343,1.37975 c -4.218959,-5.70629 -5.1752,-14.53802 -11.269213,-18.31412 -1.879196,-6.61431 16.757785,-3.72972 8.958926,1.51964 2.118466,5.42018 5.66119,15.5315 8.416458,5.05429 3.034052,-3.7826 1.700984,-5.43046 0.257911,-8.42982 2.459999,-4.40882 16.986058,-0.50532 7.696566,3.65948 -4.3074,4.82371 -4.335031,15.76535 -11.196044,16.97355 -0.942222,-0.11113 -2.043303,0.20286 -2.864604,-0.46302 z m 9.61545,-8.59895 c 0.815517,-5.14239 7.52907,-9.19198 6.664208,-12.6391 -3.156432,0.0459 -6.312863,0.0917 -9.469295,0.13761 -0.0019,3.56792 3.949168,4.26811 0.255415,8.36664 -1.748319,5.43729 -4.912646,10.53701 -6.951532,2.28507 -1.741409,-3.52825 -4.499441,-6.99242 -0.848555,-9.28154 -1.034126,-2.18234 -8.881061,-2.1468 -10.182406,-0.49091 1.08551,3.83205 6.426262,7.18252 7.391868,12.58318 0.708708,4.31144 5.690981,10.74725 9.467719,6.39206 1.224192,-2.45101 2.448385,-4.90201 3.672578,-7.35301 z m 16.998457,8.85949 c -1.903065,-4.22439 4.397401,-4.79927 2.240509,-9.86432 -0.692417,-2.4617 1.286049,-7.05255 -1.224273,-8.06768 -5.63371,-6.50196 9.689411,-3.49591 13.465564,-3.86522 9.428618,-1.26346 10.641658,14.25975 1.211919,14.59761 -2.509672,1.14449 -9.90348,-1.84064 -7.845308,3.13744 6.329962,1.40406 -0.465069,5.96746 -4.485428,4.2708 -1.113698,-0.0831 -2.265857,0.0665 -3.362983,-0.20863 z m 10.175056,-1.71677 c -1.428826,-1.12336 -6.031537,-5.97789 -0.273172,-5.75231 8.248277,2.99567 17.372824,-7.82889 8.394542,-13.09823 -3.290805,-1.68837 -7.286864,-0.45383 -10.88091,-0.88542 -2.317643,0.30033 -5.978044,-0.68685 -7.512228,0.36471 -0.286407,3.83088 4.423185,3.8563 2.671679,8.89265 0.200753,4.01651 0.396795,8.33448 -2.667023,10.24918 0.654594,2.20358 8.768304,2.31136 10.242718,0.60987 z m -2.792664,-9.49431 c -5.425807,-8.81007 11.608468,-10.00401 9.828411,-1.86984 -1.560467,3.75885 -6.835195,1.57139 -9.828411,1.86984 z m 8.356474,-0.6778 c 5.730803,-5.38731 -7.218429,-8.18779 -8.057417,-4.44952 0.13094,2.32426 -1.270475,6.10741 2.51966,4.94789 1.822952,-0.0776 3.855353,0.40142 5.537757,-0.49837 z m -21.557603,-19.1174 c -6.671654,-5.03597 -13.822957,-10.53599 -19.262224,-16.45632 6.320499,5.4555 12.519338,11.18104 19.289495,16.03846 6.478352,0.36193 18.731244,-7.67813 7.811365,-12.23821 -4.86535,-4.3959 -15.806954,-7.80623 -16.850821,-13.1138 17.769011,-10.846 39.7051,-17.31056 51.84913,-35.38605 8.05332,-11.69538 10.51994,-29.730557 -0.53314,-40.364518 -8.04902,-8.069813 -20.561904,-8.373651 -30.967747,-5.805893 -13.94697,3.619462 -24.794691,14.462426 -31.204482,27.038631 8.10433,-19.642269 31.136779,-33.52035 52.220879,-27.577069 11.11442,3.145507 18.87075,14.555227 17.68463,26.056609 -0.19624,17.84238 -14.1282,31.95747 -28.786444,40.22971 -9.90616,5.95921 -20.739021,10.26862 -30.494776,16.46635 5.037488,4.92202 12.052833,8.30417 17.899227,12.51551 10.228443,4.64844 -1.343389,12.0111 -7.579729,12.75544 l -1.075323,-0.15885 z m -0.01328,-6.21374 c -0.38156,-1.75801 6.102386,-6.62461 8.330091,-3.67996 -0.76801,1.38539 -6.265335,4.98816 -8.330091,3.67996 z m 4.751814,-1.50138 c 9.455033,-4.22265 -7.507897,-1.68782 -3.571875,1.60959 1.23725,-0.42825 2.39597,-1.04263 3.571875,-1.60959 z m -13.167089,-5.8015 c -3.171936,-3.14024 -11.854629,-7.17946 -3.354233,-9.77878 4.774888,3.60993 13.675904,7.37799 15.065557,11.81657 -4.936354,4.91899 -7.452615,1.84244 -11.711324,-2.03779 z m 7.61991,4.07605 c 10.028377,-3.84043 -5.524541,-8.18791 -8.55846,-12.01474 -4.076646,-3.77746 -8.45242,3.12034 -2.226115,4.64105 3.532131,1.99543 6.653261,7.83181 10.784575,7.37369 z M 53.206382,165.5844 c 1.985979,-2.25706 8.106444,-4.94798 2.411405,-1.41369 -0.643813,0.0955 -2.050606,1.99529 -2.411405,1.41369 z m 6.705728,-4.42392 c -0.539007,-4.76401 7.885935,-7.99702 12.06324,-11.31844 13.585326,-8.43614 29.06922,-14.8094 39.18412,-27.77718 7.27339,-8.94189 10.89403,-23.33146 2.49807,-32.778866 -6.90427,-8.577844 -19.082245,-9.019738 -28.912809,-6.369113 -15.110359,4.950064 -26.890878,18.012709 -31.330128,33.122599 -2.603977,-3.596 -2.391994,-8.12401 -0.511764,-1.43327 3.069878,-5.81363 7.305444,-15.880646 13.781246,-21.157281 10.38261,-10.125053 27.104264,-16.542126 40.871855,-9.609261 10.3524,5.205191 14.23201,18.667662 9.40157,28.938752 -6.67383,15.98124 -22.525817,24.93766 -37.035214,32.78286 -5.747762,4.44167 -17.652215,8.2914 -18.923306,14.61821 0.653878,0.60358 -3.486213,2.99841 -1.08688,0.98099 z m -4.921756,-5.14602 c -1.507451,-4.33932 3.393627,-11.06947 1.758718,-16.54245 -0.319266,-11.12951 -2.436602,-23.12665 3.752586,-33.19026 7.869166,-15.328564 26.595679,-26.851645 43.843162,-21.091905 8.61711,3.183042 13.31015,13.020681 10.95323,21.808955 -3.95324,15.85253 -18.580134,25.79355 -32.324028,32.78251 -9.404957,4.93655 -18.279589,10.80116 -26.822808,17.09304 z m 4.91513,-2.2646 C 71.818972,144.14883 86.345472,138.69674 98.628644,129.7078 108.39808,122.18006 117.54095,110.51228 114.87412,97.396139 112.47023,87.092465 100.69015,82.552624 91.066543,84.386978 71.046174,87.197806 54.515473,107.09316 56.600417,127.4485 c 0.418017,9.21189 1.766331,18.98533 -2.076906,27.69801 1.856294,2.43838 3.543806,-0.34356 5.381973,-1.39665 z m -0.276176,-3.81688 c 2.381195,-14.1247 -3.20931,-29.51648 3.953444,-42.73704 -0.564565,6.12649 -2.264325,14.76684 2.275054,20.70555 5.949506,8.58249 18.23693,6.55621 26.366862,2.63741 3.470437,-2.12715 6.945647,-3.31076 1.617263,0.21642 -8.273849,5.7474 -21.038839,9.13266 -28.99917,1.05759 -5.108221,-8.21442 -2.315301,6.77949 3.136189,5.79454 3.308674,1.84061 14.194807,0.77689 5.505575,4.29579 -4.226206,1.49025 -11.605734,-6.27705 -9.760307,1.83561 1.247073,1.72997 -3.01501,9.21187 -4.09491,6.19413 z m 1.895339,-0.75571 c 3.829162,-2.77084 -0.961516,-14.01742 6.381204,-8.52415 3.156559,2.47355 12.086923,-1.28651 4.553112,-1.397 -6.081956,0.0953 -13.028932,-6.63082 -10.276,-11.16187 5.001088,8.31492 16.309022,10.05116 24.588533,5.87283 4.336456,-1.50581 5.788222,-3.22883 0.519862,-1.04059 -8.012026,2.91186 -19.201184,1.89783 -22.990424,-6.95871 -2.593145,-4.59867 -1.790566,-10.75624 -1.880709,-15.27815 -4.725811,12.66132 -0.328039,26.28413 -2.224596,39.30949 l 1.329042,-0.82185 z m 4.947538,-4.80054 c -0.672092,-3.44664 6.757858,0.30203 0.88293,1.16153 -0.882357,1.01785 -1.100968,-0.86542 -0.88293,-1.16153 z m 2.426557,-0.45658 c -3.092542,-2.03636 -2.461911,3.74097 0,0 z m 22.463313,-25.00496 c -6.727505,-4.16391 5.715127,-10.03347 4.258997,-1.91314 -0.537486,1.56846 -2.689949,2.90371 -4.258997,1.91314 z m 2.424839,-0.39489 c 6.463776,-5.0841 -7.359756,-7.76763 -3.159741,-0.62964 0.778654,0.85731 2.108804,1.08088 3.159741,0.62964 z m -10.761098,-0.93475 c -6.036638,-5.12161 6.720312,-8.88576 4.656693,-1.43493 -0.715921,1.77551 -3.083154,2.15373 -4.656693,1.43493 z m 2.831869,-0.24162 c 6.419214,-4.80063 -7.306791,-7.4716 -3.151471,-0.5271 0.816185,0.75226 2.124623,1.22977 3.151471,0.5271 z m 12.097841,-3.05485 c -6.281461,-5.55539 7.846554,-8.43084 4.263194,-0.83513 -0.94994,1.29074 -2.898285,1.74667 -4.263194,0.83513 z m 3.139434,-0.28113 c 5.7269,-6.92219 -9.072868,-5.54508 -2.657781,0.0672 l 1.046878,0.20524 z m -22.334233,-2.65198 c -8.093357,-3.95484 5.633185,-10.26459 3.827102,-1.9607 -0.569604,1.47717 -2.271071,2.45854 -3.827102,1.9607 z m 2.09697,-0.63795 c 6.454447,-5.71288 -8.511722,-6.61657 -2.812074,-0.0898 0.809993,0.625 1.944958,0.48578 2.812074,0.0898 z m 21.656233,-3.04399 c -7.588344,-5.76482 9.15636,-8.733214 3.33518,-0.50886 -0.91894,0.73759 -2.23716,0.96338 -3.33518,0.50886 z m 3.34922,-1.04622 c 4.15385,-7.152635 -9.944416,-3.98032 -3.02923,0.63538 1.03209,0.37284 2.26296,0.14672 3.02923,-0.63538 z m -27.896173,-2.6683 c -7.94307,-3.76417 4.974496,-10.987514 4.144396,-2.50805 -0.434733,1.75602 -2.332061,3.12584 -4.144396,2.50805 z m 2.502844,-0.86745 c 5.61116,-5.050418 -6.845139,-7.948127 -4.221652,-0.96737 0.893071,1.38521 2.848497,2.10166 4.221652,0.96737 z m 9.023433,-0.84487 c -5.786844,-7.147379 9.567745,-6.801653 4.081849,-0.10943 -1.122197,0.96367 -2.930756,1.11775 -4.081849,0.10943 z m 2.772427,0.10931 c 6.69954,-3.56035 -5.925439,-8.788584 -3.155042,-1.08204 0.691024,0.8458 2.049109,1.7595 3.155042,1.08204 z m 5.148415,-1.71082 c -5.653428,-6.986364 9.687784,-6.839475 4.018644,0.0212 -1.154,0.84854 -2.885972,0.91948 -4.018644,-0.0212 z m 3.271084,-0.01 c 6.31744,-6.679457 -8.586463,-6.174735 -2.720328,-0.11484 l 1.321645,0.50101 z m -17.5153,-2.764591 c -5.927666,-6.039415 8.84062,-7.930484 4.334115,-0.618481 -0.94718,1.269548 -3.058834,1.425297 -4.334115,0.618481 z m 2.964168,-0.111339 c 7.019936,-4.854404 -7.539076,-7.448648 -2.947094,-0.498011 0.819782,0.573396 1.971796,1.280583 2.947094,0.498011 z m -33.993558,10.5675 c 0.215543,-1.47795 0.927183,-0.35971 0,0 z"
         id="path7" /><path
         style="fill:#f13329"
         d="m 50.442646,182.00009 c -4.577687,-3.1972 0.430937,-5.66788 2.838385,-3.42916 4.041356,-4.80036 5.862241,3.5842 0.683876,5.09935 -1.170984,2.11224 -2.517492,-1.26178 -3.522261,-1.67019 z m 2.580105,-13.87701 c 0.195073,-4.50778 0.163135,4.90241 0,0 z M 28.055285,166.44371 C 7.5028931,156.82308 -14.011707,143.88644 -23.071208,121.95437 -29.697873,106.59322 -25.291715,87.112544 -11.64593,77.039144 7.2747474,62.49771 36.653825,66.605402 52.264487,84.174953 c 3.617765,0.27572 7.351001,-7.463089 11.950544,-8.689534 18.666737,-11.619439 46.482859,-9.96684 60.591919,8.066391 11.80736,14.672114 9.27636,36.64165 -1.99225,50.84724 -12.02929,15.78828 -30.131365,25.31684 -47.855588,33.32716 -8.205656,-4.18399 7.492057,-6.6023 10.286182,-9.88935 16.904496,-9.35197 34.637586,-21.8153 40.455256,-41.23495 4.53771,-14.9062 -2.32737,-32.403897 -16.40061,-39.467945 C 91.112321,67.698695 67.346582,73.38356 54.092589,88.64432 48.528593,88.137104 43.252033,78.696363 36.110156,76.996663 19.572038,69.211328 -2.8436064,71.773479 -14.106699,87.260298 c -10.43347,13.167442 -6.935412,32.397132 2.953832,44.786392 11.59365254,15.16983 28.776205,24.45453 45.293568,33.2633 -1.816114,2.25068 -3.63532,2.80134 -6.085416,1.13372 z"
         id="path6" /><path
         style="fill:#0e224c"
         d="m 1.438727,217.62799 c 0.8223232,-3.40538 4.2055386,-5.37383 2.8040591,-10.1975 1.2063022,-4.56802 -1.4571535,-6.70381 -2.8649299,-9.70825 1.111297,-1.72079 5.0371653,-0.28705 7.262197,-0.75958 3.1055998,1.06222 3.7977768,6.28917 6.1548028,8.70652 2.906475,4.07878 4.931396,-5.04471 7.092861,-7.35761 1.071061,-2.66634 4.764622,-0.79798 7.059069,-1.34891 4.284134,-0.24395 0.502269,3.50518 -0.635924,4.21726 0.633653,4.43466 -2.06852,11.51904 1.961547,13.70329 2.837059,3.57112 -1.666702,3.36521 -4.201499,3.11383 -2.474242,-0.0743 -6.0822,0.98512 -4.894791,-2.75083 4.926417,0.40984 2.768795,-16.50812 -0.0044,-8.18392 -2.101981,1.55503 -2.943853,9.43148 -6.468865,5.95215 -2.11455,-2.80621 -7.1672349,-14.14561 -6.4670096,-4.83364 -2.2990057,4.78278 3.9625776,6.74644 2.4464736,9.81621 -3.0714857,-0.12668 -6.2450535,0.33016 -9.243599,-0.36902 z m 50.281101,-0.35856 c -3.973234,-5.31652 -4.640306,-14.67129 -10.832252,-17.40533 -1.174093,-3.73592 2.241695,-2.94952 4.835357,-2.97315 5.536148,-1.4154 5.998272,2.15355 3.224377,4.42765 2.384604,4.44188 6.050661,17.44377 8.930237,6.11232 2.163423,-3.75679 3.634461,-6.77594 0.654797,-9.32423 0.34656,-2.44551 4.715171,-0.63168 6.795066,-1.24159 8.021398,-0.74202 -1.989512,5.50015 -2.220493,9.24937 -2.0001,3.95225 -3.966009,7.92168 -5.949075,11.88248 -1.7001,-0.30519 -4.294989,0.77626 -5.438014,-0.72752 z m 26.788332,0.55687 c 0.320529,-3.47875 3.938771,-5.51727 2.490701,-10.41252 1.079888,-4.34013 -1.116031,-6.54191 -2.608862,-8.85785 -0.872652,-3.34086 4.092273,-1.08432 6.063139,-1.69866 3.791007,0.2869 7.826089,-0.43776 11.460413,0.49851 7.792589,2.55727 4.442629,14.95275 -3.710205,13.42919 -6.561289,-1.76608 -8.32264,3.19177 -3.610118,5.82188 -0.95272,2.9543 -7.357511,0.40112 -10.085103,1.21935 z m 16.375414,-11.53319 c 5.248646,-7.78244 -13.925567,-9.44381 -9.333439,-0.18885 0.780484,1.85279 7.70655,1.90814 9.333439,0.18885 z M 69.399063,184.59339 c -4.794821,-5.81045 -14.955757,-9.02365 -16.154519,-16.73578 -0.501457,-4.34231 6.271392,-4.41968 7.780558,-7.63568 1.125856,-6.36533 13.18292,-10.20405 18.897196,-14.66065 14.306541,-7.74638 29.874642,-16.51004 36.745862,-32.09269 4.55569,-9.46689 2.41162,-21.980818 -6.62072,-28.008017 -12.461895,-8.75095 -29.627041,-3.66818 -40.462988,5.410708 -7.681732,6.259961 -13.22997,14.862509 -16.38533,24.202849 -4.016754,-6.21337 2.637583,-12.52328 5.582906,-17.757678 9.129575,-12.161932 24.27668,-20.096206 39.660793,-18.587242 13.250069,0.116986 24.552299,12.342015 23.900549,25.54401 0.1416,17.54341 -12.85281,32.05501 -27.33046,40.32016 -10.452588,6.477 -22.20121,10.82326 -32.297208,17.79459 6.538168,5.75404 14.685159,9.79773 21.729964,15.03362 3.504059,5.9486 -11.955805,12.70233 -15.046603,7.1718 z m 8.115411,-4.64282 c 6.421355,-1.48395 1.310658,-5.68232 -1.797846,-2.10828 -6.818853,2.26569 -2.262692,5.51241 1.797846,2.10828 z m -4.993626,-1.98915 c 9.433437,-4.07824 -5.823857,-8.5565 -9.226718,-12.51868 -4.071886,-3.59606 -9.963819,3.34348 -2.93097,5.12139 3.828911,1.82318 7.68916,9.52241 12.157688,7.39729 z M 55.246168,155.7383 c -0.71276,-4.13792 3.073574,-10.30921 1.920079,-15.39006 -0.201105,-11.47187 -2.61884,-23.9172 3.893691,-34.2725 7.91907,-14.839273 26.161215,-26.107656 43.039702,-20.493119 8.01371,2.712909 12.52402,11.448605 11.02016,19.618249 -2.21172,14.14224 -14.41199,24.10606 -26.144644,30.84061 -11.405091,5.95944 -22.488944,12.54448 -32.773839,20.29813 z m 6.280079,-6.02786 c 4.676468,-2.79571 -1.134007,-14.31303 6.969555,-8.4051 3.444982,2.91786 13.462775,-3.11368 4.772267,-2.36696 -5.70715,1.75651 -13.649717,-8.14805 -10.397073,-9.31217 5.497735,7.93134 16.510897,8.52754 24.611839,4.60891 3.154963,-0.54252 14.007355,-8.93636 5.934417,-4.27617 -8.080464,4.10123 -20.066323,6.77541 -26.813871,-1.06605 -5.01091,-6.11299 -4.20239,-14.54024 -2.737053,-21.75217 -4.44101,6.67753 -4.210994,15.62012 -3.965651,23.48997 1.081535,6.11999 -0.719649,15.63809 0.559861,19.83522 l 1.065707,-0.75548 z m 6.769507,-4.67115 c 4.272537,-2.9512 -5.34046,-2.11225 -1.057013,0.55236 l 1.057016,-0.55237 z m 25.47256,-26.09664 c 7.445806,-4.81 -7.076344,-9.71174 -3.794332,-1.27387 0.797735,1.06872 2.449442,2.2358 3.794332,1.27387 z M 86.93411,117.1823 c 4.956903,-6.36003 -9.166944,-7.23269 -4.572274,-0.11227 1.161524,1.21063 3.305447,1.07221 4.572274,0.11227 z m 14.81643,-3.17477 c 5.12595,-6.81584 -8.974554,-7.00572 -4.476439,-0.29207 1.111372,1.25971 3.203369,1.35457 4.476439,0.29207 z m -20.302047,-3.11559 c 6.252591,-6.83196 -9.616457,-7.44768 -3.928817,-0.21198 1.054106,0.97863 2.769124,1.03492 3.928817,0.21198 z m 23.889957,-3.37128 c 6.99497,-5.24584 -7.982841,-8.778447 -4.08131,-0.90851 0.91885,1.24464 2.72239,1.7227 4.08131,0.90851 z m -24.684599,-3.9882 c 6.277551,-5.279913 -7.158464,-9.453418 -4.897427,-1.5315 0.784859,1.82096 3.213831,2.76699 4.897427,1.5315 z m 12.603382,-1.14414 c 6.216535,-5.756688 -8.321145,-8.178905 -4.318799,-0.67368 1.000742,1.27633 2.977388,1.62053 4.318799,0.67368 z m 7.857027,-1.48697 c 6.41009,-5.837472 -8.601727,-8.4384 -4.043563,-0.57838 1.013906,1.08767 2.761367,1.28484 4.043563,0.57838 z M 87.503975,97.252698 c 4.15342,-9.783632 -12.688954,-1.605671 -2.182812,1.065838 l 1.226346,-0.267368 z"
         id="path5" /></g></g></svg>
